<svg aria-hidden="true" style="position: absolute; width: 0; height: 0; overflow: hidden;" version="1.1" xmlns="http://www.w3.org/2000/svg" xmlns:xlink="http://www.w3.org/1999/xlink">
<defs>
<symbol id="icon-foodsta" viewBox="0 0 66 52" fill="none">
<path d="M22.947 10.54c1.648-3.233 6.279-3.233 7.927 0l2.052 4.023a4.446 4.446 0 0 0 3.262 2.37l4.484.713c3.58.57 5.009 4.944 2.451 7.507l-3.228 3.235a4.427 4.427 0 0 0-1.24 3.816l.709 4.5c.564 3.578-3.18 6.285-6.415 4.638l-4.017-2.045a4.458 4.458 0 0 0-4.044 0l-4.016 2.045c-3.235 1.647-6.979-1.06-6.415-4.638l.71-4.5a4.427 4.427 0 0 0-1.242-3.817l-3.227-3.234c-2.558-2.563-1.13-6.937 2.45-7.507l4.484-.714a4.446 4.446 0 0 0 3.263-2.369l2.052-4.024Z" fill="#FFE550"/>
<path d="m1.817 33.079-.035.008c.004.12-.002.608-.02 1.463-.005.852-.007 1.412-.005 1.678 0 .256-.006.464-.017.624l.002.547a3.675 3.675 0 0 1-.033.481l-.03.336c-.023.212-.069.326-.138.343-.15.035-.384-.08-.703-.345-.321-.276-.506-.518-.555-.725-.05-.207-.06-1.724-.034-4.55.038-2.828-.037-4.688-.223-5.58a.674.674 0 0 1 .023-.443c.058-.27.358-.522.899-.76.552-.24 1.376-.49 2.472-.749 1.108-.262 1.987-.41 2.637-.442.662-.035 1.017.051 1.066.259.033.138-.042.259-.225.363a9.59 9.59 0 0 1-.486.26c-.145.06-.334.134-.568.226a44.8 44.8 0 0 0-.659.229c-.205.06-.47.148-.797.262-.315.11-.607.216-.875.316-.272.089-.637.218-1.097.387-.46.17-.757.277-.892.32.02.033.037.083.054.152.127.541.196 1.837.206 3.889a17.946 17.946 0 0 0 2.29-.596c.814-.266 1.314-.42 1.498-.465.439-.103.68-.063.723.121.085.357-.347.775-1.293 1.254-.935.477-1.997.855-3.185 1.137ZM13.115 29.895a3.262 3.262 0 0 0-.452-1.06c-.211-.327-.457-.542-.738-.646-.744.407-1.285 1.185-1.622 2.334-.329 1.136-.388 2.146-.179 3.033.21.886.56 1.386 1.05 1.501.792-.357 1.363-1.088 1.711-2.191.357-1.118.434-2.108.23-2.971ZM8.6 31.127c.191-.993.542-1.854 1.052-2.582.52-.743 1.119-1.195 1.8-1.356.692-.164 1.338-.007 1.938.47.598.467.996 1.12 1.195 1.96.196.83.195 1.729-.002 2.699-.2.959-.59 1.81-1.168 2.555-.57.73-1.254 1.19-2.05 1.379-.588.139-1.143-.015-1.663-.464-.52-.448-.878-1.086-1.074-1.915-.199-.84-.208-1.755-.028-2.746ZM20.956 28.039a3.266 3.266 0 0 0-.451-1.06c-.211-.327-.457-.542-.738-.646-.744.407-1.285 1.185-1.622 2.335-.329 1.135-.388 2.146-.179 3.032.21.886.56 1.387 1.05 1.502.792-.358 1.363-1.089 1.71-2.192.358-1.118.434-2.108.23-2.971Zm-4.514 1.232c.191-.993.542-1.854 1.052-2.582.519-.743 1.119-1.195 1.8-1.356.692-.164 1.338-.007 1.938.471.598.466.996 1.12 1.194 1.96.196.828.196 1.728-.001 2.698a6.14 6.14 0 0 1-1.169 2.555c-.57.731-1.253 1.19-2.05 1.379-.588.14-1.142-.015-1.662-.463-.52-.449-.878-1.087-1.074-1.916-.199-.84-.208-1.755-.028-2.746ZM29.142 17.898c.184-.044.45.076.797.358.356.268.57.552.64.851.07.3.128 1.185.172 2.658.04 1.46.047 2.984.02 4.57-.036 3.558-.186 5.368-.452 5.431-.161.038-.363-.017-.606-.166-.233-.164-.368-.32-.403-.47-.035-.15-.066-.459-.091-.927-.859 1.419-1.71 2.228-2.551 2.427-.508.12-1.024 0-1.548-.363-.513-.365-.828-.794-.945-1.29-.168-.713-.178-1.604-.029-2.672a9.12 9.12 0 0 1 1.042-3.09c.537-.979 1.215-1.564 2.034-1.758.819-.194 1.505.16 2.06 1.062.011-2.58-.121-4.584-.398-6.013-.082-.345.004-.548.258-.608Zm.1 8.927c-.146-.621-.38-1.12-.7-1.493-.308-.377-.612-.53-.912-.459-.496.118-.932.543-1.307 1.276a7.58 7.58 0 0 0-.748 2.4c-.115.855-.104 1.57.032 2.145a.64.64 0 0 0 .343.447c.18.091.374.112.582.063.45-.107.979-.572 1.588-1.397.62-.827 1-1.72 1.14-2.676l.003-.22-.02-.086ZM40.289 25.779c.223.944-.016 1.839-.717 2.685-.705.835-1.61 1.384-2.718 1.646-1.096.26-2.068.192-2.917-.203-.851-.406-1.337-.862-1.457-1.369-.081-.345-.018-.542.19-.591.184-.044.613.146 1.286.57.254.147.574.265.961.356.398.088.794.086 1.186-.007.808-.191 1.474-.568 2-1.13.536-.564.747-1.088.633-1.571-.074-.311-.375-.66-.905-1.044-.53-.385-1.099-.73-1.707-1.036a13.39 13.39 0 0 1-1.698-1.075c-.532-.397-.833-.74-.9-1.027a2.793 2.793 0 0 1-.044-.956c.04-.35.11-.615.214-.798.333-.601.923-1.221 1.771-1.86.86-.64 1.613-1.037 2.259-1.19.334-.08.643-.037.925.127.283.164.452.367.51.609.027.115-.072.236-.299.362a25.81 25.81 0 0 1-1.042.539c-.46.218-.862.447-1.208.687-1.207.82-1.755 1.466-1.643 1.938.06.253.902.801 2.527 1.644.625.326 1.216.74 1.773 1.24.566.486.906.97 1.02 1.454ZM44.262 26.643c.052.219.205.298.459.238.438-.104.94-.35 1.506-.74.575-.403.897-.612.966-.629.208-.05.337.036.39.254.078.334-.177.802-.766 1.403-.577.598-1.148.964-1.714 1.098-.553.131-1.05.09-1.49-.121-.443-.223-.702-.496-.779-.819-.076-.322-.103-.747-.082-1.274.019-.54.059-1.248.12-2.125.069-.892.114-1.626.136-2.202-.512.255-.86.404-1.045.448-.184.044-.39-.005-.619-.145-.22-.155-.35-.319-.39-.491-.066-.276.622-.719 2.062-1.327-.018-1.004-.115-1.875-.289-2.611-.081-.346-.007-.546.224-.6.196-.047.468.023.817.207.345.174.555.416.628.727.074.31.105.88.094 1.71a19.514 19.514 0 0 1 1.554-.46c.692-.163 1.074-.096 1.145.204.04.172-.116.361-.47.566-.341.203-1.084.567-2.227 1.093-.027.966-.086 2.08-.178 3.342-.094 1.25-.111 2.001-.052 2.254ZM52.004 17.592c.519-.123 1.06.028 1.624.454.56.414.892.834.992 1.26.098.415.055.874-.13 1.38.179.14.283.273.313.4.077.322.132.892.167 1.71.047.816.081 1.349.104 1.598.034.248.057.449.07.604.01.143.013.288.011.435.022.298-.048.467-.21.505-.207.05-.422-.088-.645-.412-.214-.339-.4-.793-.56-1.363-.72 1.544-1.517 2.42-2.394 2.627-.53.125-1.109.025-1.734-.3-.617-.341-.982-.753-1.096-1.236-.164-.69-.111-1.603.157-2.736.265-1.144.708-2.209 1.328-3.194.62-.986 1.287-1.563 2.003-1.732Zm1.514 2.85c-.253-1.07-.593-1.555-1.02-1.454-.45.107-.898.553-1.346 1.34a9.592 9.592 0 0 0-1.013 2.518c-.225.904-.281 1.592-.17 2.064a.605.605 0 0 0 .357.426c.189.077.393.09.612.037.542-.128 1.068-.635 1.577-1.521.507-.898.769-1.902.786-3.012-.006-.181.068-.308.221-.38l-.004-.018Z" fill="#2C2C2C"/>
<path d="M49.97 32.459a1.492 1.492 0 0 0-1.047.98c-3.099 9.184-11.776 15.79-21.985 15.79-6.191 0-11.82-2.43-15.982-6.392a1.495 1.495 0 0 0-1.385-.38c-1.041.258-1.436 1.515-.665 2.259A25.88 25.88 0 0 0 26.938 52c11.504 0 21.262-7.484 24.677-17.852.336-1.017-.603-1.947-1.646-1.69ZM3.03 22.991c.564-.14.982-.608 1.085-1.178C6.085 10.977 15.561 2.772 26.94 2.772c7.398 0 13.993 3.47 18.243 8.877.358.456.947.676 1.511.536.951-.235 1.381-1.337.782-2.11C42.723 3.945 35.291 0 26.938 0 14.129 0 3.485 9.28 1.35 21.488c-.168.963.729 1.739 1.68 1.503ZM66 8.664c-6.14 11.766-8.834 4.005-17.477 8.564C49.388 3.57 58.541 11.88 66 8.664Z" fill="#BBF330"/>
</symbol>
<symbol id="icon-touch-app" width="48" height="48" viewBox="0 0 48 48" fill="none">
<path d="M23.5003 9.33331C25.5225 9.33331 27.2503 10.0389 28.6836 11.45C30.1169 12.8611 30.8336 14.5778 30.8336 16.6C30.8336 17.7555 30.5836 18.8444 30.0836 19.8666C29.5836 20.8889 28.878 21.7555 27.9669 22.4666H26.8336V20.8C27.478 20.2889 27.9725 19.6666 28.3169 18.9333C28.6614 18.2 28.8336 17.4222 28.8336 16.6C28.8336 15.1333 28.3114 13.8889 27.2669 12.8666C26.2225 11.8444 24.9669 11.3333 23.5003 11.3333C22.0336 11.3333 20.778 11.8444 19.7336 12.8666C18.6891 13.8889 18.1669 15.1333 18.1669 16.6C18.1669 17.4222 18.3391 18.2 18.6836 18.9333C19.028 19.6666 19.5225 20.2889 20.1669 20.8V23.2C18.9225 22.5555 17.9447 21.6444 17.2336 20.4666C16.5225 19.2889 16.1669 18 16.1669 16.6C16.1669 14.5778 16.8836 12.8611 18.3169 11.45C19.7503 10.0389 21.478 9.33331 23.5003 9.33331ZM22.2336 37.3333C21.8558 37.3333 21.5003 37.2611 21.1669 37.1166C20.8336 36.9722 20.5447 36.7778 20.3003 36.5333L13.4336 29.6666L15.3003 27.7333C15.6114 27.4222 15.9614 27.1833 16.3503 27.0166C16.7391 26.85 17.1447 26.8222 17.5669 26.9333L20.1669 27.5333V16.6666C20.1669 15.7333 20.4891 14.9444 21.1336 14.3C21.778 13.6555 22.5669 13.3333 23.5003 13.3333C24.4336 13.3333 25.2225 13.6555 25.8669 14.3C26.5114 14.9444 26.8336 15.7333 26.8336 16.6666V22.4H27.7003C27.8114 22.4 27.9114 22.4222 28.0003 22.4666C28.0891 22.5111 28.1891 22.5555 28.3003 22.6L33.2336 25C33.7669 25.2444 34.1614 25.6389 34.4169 26.1833C34.6725 26.7278 34.7447 27.2889 34.6336 27.8666L33.4336 35.1333C33.3225 35.7778 33.0114 36.3055 32.5003 36.7166C31.9891 37.1278 31.4114 37.3333 30.7669 37.3333H22.2336ZM21.9669 35.3333H31.3336L32.7669 27.0333L26.6669 24H24.8336V16.6666C24.8336 16.2666 24.7114 15.9444 24.4669 15.7C24.2225 15.4555 23.9003 15.3333 23.5003 15.3333C23.1003 15.3333 22.778 15.4555 22.5336 15.7C22.2891 15.9444 22.1669 16.2666 22.1669 16.6666V29.9666L17.0336 28.8666L16.2669 29.6333L21.9669 35.3333ZM31.3336 35.3333H21.9669H31.3336Z" fill="#7EB101"/>
</symbol>
<symbol id="icon-rocked-launch"  viewBox="0 0 48 48" fill="none">
<path d="M14.2333 21.6334L17.7667 23.1334C18.1667 22.3334 18.5944 21.5445 19.05 20.7667C19.5056 19.9889 19.9889 19.2445 20.5 18.5334L17.8667 18L14.2333 21.6334ZM19.3667 24.3334L23.8 28.7667C25.0667 28.1889 26.2556 27.5334 27.3667 26.8C28.4778 26.0667 29.3778 25.3556 30.0667 24.6667C31.8667 22.8667 33.1889 21.0223 34.0333 19.1334C34.8778 17.2445 35.3333 15.1111 35.4 12.7334C33.0222 12.8 30.8889 13.2556 29 14.1C27.1111 14.9445 25.2667 16.2667 23.4667 18.0667C22.7778 18.7556 22.0667 19.6556 21.3333 20.7667C20.6 21.8778 19.9444 23.0667 19.3667 24.3334ZM27 21.1334C26.5556 20.6889 26.3333 20.1389 26.3333 19.4834C26.3333 18.8278 26.5556 18.2778 27 17.8334C27.4444 17.3889 27.9944 17.1667 28.65 17.1667C29.3056 17.1667 29.8556 17.3889 30.3 17.8334C30.7444 18.2778 30.9667 18.8278 30.9667 19.4834C30.9667 20.1389 30.7444 20.6889 30.3 21.1334C29.8556 21.5778 29.3056 21.8 28.65 21.8C27.9944 21.8 27.4444 21.5778 27 21.1334ZM26.5 33.9L30.1333 30.2667L29.6 27.6334C28.8889 28.1445 28.1444 28.6278 27.3667 29.0834C26.5889 29.5389 25.8 29.9667 25 30.3667L26.5 33.9ZM37.3667 10.7667C37.5667 13.7889 37.1889 16.5445 36.2333 19.0334C35.2778 21.5223 33.7 23.8667 31.5 26.0667L31.4333 26.1334L31.3667 26.2L32.1 29.8667C32.1667 30.2 32.15 30.5223 32.05 30.8334C31.95 31.1445 31.7778 31.4223 31.5333 31.6667L25.8333 37.4L23 30.8L17.3333 25.1334L10.7333 22.3L16.4667 16.6C16.7111 16.3556 16.9889 16.1834 17.3 16.0834C17.6111 15.9834 17.9333 15.9667 18.2667 16.0334L21.9333 16.7667C21.9556 16.7445 21.9778 16.7278 22 16.7167C22.0222 16.7056 22.0444 16.6889 22.0667 16.6667C24.2667 14.4667 26.6111 12.8834 29.1 11.9167C31.5889 10.95 34.3444 10.5667 37.3667 10.7667ZM12.9667 29.1667C13.7444 28.3889 14.6944 27.9945 15.8167 27.9834C16.9389 27.9723 17.8889 28.3556 18.6667 29.1334C19.4444 29.9111 19.8278 30.8611 19.8167 31.9834C19.8056 33.1056 19.4111 34.0556 18.6333 34.8334C18.0556 35.4111 17.1611 35.8889 15.95 36.2667C14.7389 36.6445 12.9222 37 10.5 37.3334C10.8333 34.9111 11.1833 33.0889 11.55 31.8667C11.9167 30.6445 12.3889 29.7445 12.9667 29.1667ZM14.3667 30.6C14.0556 30.9334 13.7778 31.4556 13.5333 32.1667C13.2889 32.8778 13.0778 33.7889 12.9 34.9C14.0111 34.7223 14.9222 34.5111 15.6333 34.2667C16.3444 34.0223 16.8667 33.7445 17.2 33.4334C17.6222 33.0556 17.8389 32.5834 17.85 32.0167C17.8611 31.45 17.6667 30.9556 17.2667 30.5334C16.8444 30.1334 16.35 29.9389 15.7833 29.95C15.2167 29.9611 14.7444 30.1778 14.3667 30.6Z" fill="#7EB101"/>
</symbol>
<symbol id="icon-Read-more-vector" viewBox="0 0 15 14" width="15" height="14" fill="none">
<path fill="#000" fill-rule="evenodd" d="M9.595 6.873a.395.395 0 0 1 0 .558L5.567 11.46a.395.395 0 0 1-.559 0l-.186-.186a.395.395 0 0 1 0-.56l3.562-3.561L4.822 3.59a.395.395 0 0 1 0-.559l.186-.186a.395.395 0 0 1 .56 0l4.027 4.028Z" clip-rule="evenodd"/>
</symbol>
</defs>
</svg>
